<svg xmlns="http://www.w3.org/2000/svg" height="682.667" width="682.667"><defs><clipPath id="a"><path d="M0 512h512V0H0z"/></clipPath><clipPath id="b"><path d="M353.731 406.816l-97.287-140.599h-.888l-97.064 140.599h-15.105l104.839-151.26-104.394-150.372h14.881l96.621 140.154h.888l96.62-140.154h15.104L263.551 255.556l105.061 151.26z"/></clipPath><linearGradient id="c" gradientTransform="matrix(0 -301.63269 225.22501 0 256 406.816)" gradientUnits="userSpaceOnUse" x2="1"><stop offset="0" stop-color="#58b0e3"/><stop offset="1" stop-color="#f44e28"/></linearGradient></defs><g clip-path="url(#a)" transform="matrix(1.33333 0 0 -1.33333 0 682.667)"><path d="M256 501.013c135.317 0 245.013-109.696 245.013-245.013S391.317 10.987 256 10.987 10.987 120.683 10.987 256 120.683 501.013 256 501.013" fill="#fff"/></g><g clip-path="url(#b)" transform="matrix(1.33333 0 0 -1.33333 0 682.667)"><path d="M353.731 406.816l-97.287-140.599h-.888l-97.064 140.599h-15.105l104.839-151.26-104.394-150.372h14.881l96.621 140.154h.888l96.62-140.154h15.104L263.551 255.556l105.061 151.26z" fill="url(#c)"/></g></svg>