<svg width="100" height="101" viewBox="0 0 100 101" fill="none" xmlns="http://www.w3.org/2000/svg">
  <path fill-rule="evenodd" clip-rule="evenodd" d="M41 9.28a4 4 0 0 1 4-4h35l18 18v48a4 4 0 0 1-4 4H45a4 4 0 0 1-4-4v-62Z" fill="url(#a)"/>
  <path fill-rule="evenodd" clip-rule="evenodd" d="M81.967 44.569c2.291.03 3.805.375 4.482 1.037.24.237.469.583.498.86.13.938.03 1.847-.408 2.509-.23.346-.598.592-1.036.701a4.009 4.009 0 0 1-1.046.119c-2.29 0-5.916-1.146-8.864-2.796-3.874.573-8.297 1.62-12.181 2.875-3.357 5.818-5.797 8.407-7.898 8.407a2.59 2.59 0 0 1-1.139-.267l-.836-.415c-.525-.306-.603-.948-.5-1.442.325-1.58 2.285-3.567 5.234-5.315.22-.131.892-.486 1.373-.74.281-.15.497-.263.519-.278l.867-.454a102.606 102.606 0 0 0 2.778-5.078l.13-.247c.966-1.877 2.061-4.01 2.938-6.125l.319-.76c-1.225-4.634-1.903-8.21-1.245-10.61.209-.759 1.036-1.27 2.041-1.27h.01l.528.018c.907-.039 1.484.672 1.773 1.34l.09.247c.08.217.1.296.14.583.288 2.055-.788 8.13-.788 8.13-.027.127-.058.25-.09.38l-.079.322c.996 2.707 2.59 5.167 4.502 6.945.717.662 1.624 1.205 2.5 1.709 1.972-.267 3.835-.405 5.388-.385ZM69 29.793c-.022-1.69-.304-3.481-.796-3.481-.224 0-.202 2.547-.202 2.547 0 1.333.13 3.37.412 4.672.34-.882.608-2.058.586-3.738Zm-5 18.175c.482-.835.974-1.72 1.477-2.664 1.225-2.296 2.008-4.105 2.581-5.586 1.155 2.078 2.592 3.837 4.269 5.248.21.18.432.348.673.527-3.425.676-6.388 1.491-9 2.475Zm20.906-.274c-.203.17-.784.274-1.152.274-1.2 0-2.672-.744-4.754-1.945.804-.078 1.53-.117 2.188-.117 1.2 0 1.55 0 2.73.404 1.172.392 1.182 1.214.988 1.384ZM55 56.218c.392-.946 1.922-2.821 4.185-4.489.13-.092.442-.353.742-.606l.073-.061c-2.364 3.39-3.954 4.733-5 5.156Z" fill="#FF3B30"/>
  <path fill-rule="evenodd" clip-rule="evenodd" d="M80 5.28v14a4 4 0 0 0 4 4h14l-18-18Z" fill="url(#b)"/>
  <path fill-rule="evenodd" clip-rule="evenodd" d="M2 29.28a4 4 0 0 1 4-4h35l18 18v48a4 4 0 0 1-4 4H6a4 4 0 0 1-4-4v-62Z" fill="url(#c)"/>
  <path fill-rule="evenodd" clip-rule="evenodd" d="M42.967 64.569c2.291.03 3.805.375 4.482 1.037.24.237.468.583.498.86.13.938.03 1.847-.408 2.509-.23.346-.598.592-1.036.701a4.009 4.009 0 0 1-1.046.119c-2.29 0-5.916-1.146-8.864-2.796-3.875.573-8.297 1.62-12.181 2.875-3.357 5.818-5.797 8.407-7.898 8.407a2.59 2.59 0 0 1-1.139-.267l-.836-.415c-.525-.306-.603-.948-.5-1.442.325-1.58 2.285-3.567 5.234-5.315.22-.131.892-.486 1.373-.74.281-.15.497-.263.519-.278l.867-.454a102.606 102.606 0 0 0 2.778-5.078l.13-.247c.966-1.877 2.061-4.01 2.938-6.125l.319-.76c-1.225-4.634-1.903-8.21-1.245-10.61.209-.758 1.036-1.27 2.041-1.27h.01l.528.018c.907-.039 1.484.672 1.773 1.34l.09.247c.08.218.1.297.14.583.288 2.055-.787 8.13-.787 8.13-.028.127-.06.25-.091.38l-.079.322c.996 2.707 2.59 5.167 4.502 6.945.717.662 1.623 1.205 2.5 1.709 1.972-.267 3.835-.405 5.388-.385ZM30 49.793c-.022-1.69-.304-3.481-.796-3.481-.224 0-.202 2.547-.202 2.547 0 1.333.13 3.37.412 4.672.34-.882.607-2.058.586-3.738Zm-5 18.175c.482-.835.974-1.72 1.477-2.664 1.225-2.296 2.008-4.105 2.581-5.586 1.155 2.078 2.592 3.837 4.269 5.248.21.18.432.348.673.527-3.425.676-6.388 1.491-9 2.475Zm20.906-.274c-.203.17-.784.274-1.152.274-1.2 0-2.672-.744-4.754-1.945.804-.078 1.53-.117 2.188-.117 1.2 0 1.55 0 2.73.404 1.172.392 1.182 1.214.988 1.384ZM16 76.218c.392-.946 1.922-2.821 4.185-4.489.13-.092.442-.353.742-.606l.073-.061c-2.364 3.39-3.954 4.733-5 5.156Z" fill="#FF3B30"/>
  <path fill-rule="evenodd" clip-rule="evenodd" d="M41 25.28v14a4 4 0 0 0 4 4h14l-18-18Z" fill="url(#d)"/>
  <defs>
    <linearGradient id="a" x1="41" y1="5.281" x2="41" y2="75.281" gradientUnits="userSpaceOnUse">
      <stop stop-color="#FFE4E1"/>
      <stop offset="1" stop-color="#FFC4C0"/>
    </linearGradient>
    <linearGradient id="b" x1="80" y1="5.281" x2="80" y2="23.281" gradientUnits="userSpaceOnUse">
      <stop stop-color="#FFC8C4"/>
      <stop offset="1" stop-color="#FFACA7"/>
    </linearGradient>
    <linearGradient id="c" x1="2" y1="25.281" x2="2" y2="95.281" gradientUnits="userSpaceOnUse">
      <stop stop-color="#FFE4E1"/>
      <stop offset="1" stop-color="#FFC4C0"/>
    </linearGradient>
    <linearGradient id="d" x1="41" y1="25.281" x2="41" y2="43.281" gradientUnits="userSpaceOnUse">
      <stop stop-color="#FFC8C4"/>
      <stop offset="1" stop-color="#FFACA7"/>
    </linearGradient>
  </defs>
</svg>
