<svg width="100" height="100" viewBox="0 0 100 100" fill="none" xmlns="http://www.w3.org/2000/svg">
  <path fill-rule="evenodd" clip-rule="evenodd" d="M22 19a4 4 0 0 1 4-4h35l18 18v48a4 4 0 0 1-4 4H26a4 4 0 0 1-4-4V19Z" fill="url(#a)"/>
  <path fill-rule="evenodd" clip-rule="evenodd" d="M62.967 54.288c2.291.03 3.805.375 4.482 1.037.24.237.469.583.498.86.13.938.03 1.847-.408 2.509a1.72 1.72 0 0 1-1.036.701c-.289.08-.637.119-1.046.119-2.29 0-5.916-1.146-8.864-2.796-3.875.573-8.297 1.62-12.181 2.875C41.055 65.412 38.615 68 36.514 68c-.389 0-.777-.089-1.139-.267l-.836-.415c-.525-.306-.603-.948-.5-1.442.325-1.58 2.285-3.566 5.234-5.315.22-.13.892-.486 1.373-.74.281-.149.497-.263.519-.277l.867-.455a102.599 102.599 0 0 0 2.778-5.078l.13-.247c.966-1.877 2.062-4.01 2.938-6.125l.319-.76c-1.225-4.634-1.903-8.21-1.245-10.61C47.16 35.51 47.988 35 48.993 35h.01l.528.017c.907-.039 1.484.673 1.773 1.34l.09.247c.08.218.1.297.14.583.288 2.055-.788 8.13-.788 8.13-.027.127-.058.25-.09.38l-.079.322c.996 2.707 2.59 5.167 4.502 6.945.717.662 1.623 1.205 2.5 1.71 1.972-.268 3.835-.406 5.388-.386ZM50 39.513c-.022-1.69-.304-3.482-.796-3.482-.224 0-.202 2.547-.202 2.547 0 1.333.13 3.37.412 4.672.34-.882.608-2.058.586-3.737Zm-5 18.175c.482-.835.974-1.72 1.477-2.664 1.225-2.296 2.009-4.105 2.581-5.587 1.155 2.078 2.592 3.837 4.269 5.249.21.179.432.348.673.526-3.425.676-6.388 1.491-9 2.475Zm20.906-.275c-.203.17-.784.275-1.152.275-1.2 0-2.672-.745-4.754-1.946a22.69 22.69 0 0 1 2.188-.117c1.2 0 1.55 0 2.73.405 1.172.391 1.182 1.214.988 1.383ZM36 65.938c.392-.947 1.922-2.822 4.185-4.49.13-.091.442-.353.742-.606l.073-.06c-2.364 3.389-3.954 4.732-5 5.156Z" fill="#FF3B30"/>
  <path fill-rule="evenodd" clip-rule="evenodd" d="M61 15v14a4 4 0 0 0 4 4h14L61 15Z" fill="url(#b)"/>
  <defs>
    <linearGradient id="a" x1="22" y1="15" x2="22" y2="85" gradientUnits="userSpaceOnUse">
      <stop stop-color="#FFE4E1"/>
      <stop offset="1" stop-color="#FFC4C0"/>
    </linearGradient>
    <linearGradient id="b" x1="61" y1="15" x2="61" y2="33" gradientUnits="userSpaceOnUse">
      <stop stop-color="#FFC8C4"/>
      <stop offset="1" stop-color="#FFACA7"/>
    </linearGradient>
  </defs>
</svg>
